<svg width="70" height="70" viewBox="0 0 70 70" fill="none" xmlns="http://www.w3.org/2000/svg">
<g clip-path="url(#clip0_54_36)">
<path d="M35 70C54.33 70 70 54.33 70 35C70 15.67 54.33 0 35 0C15.67 0 0 15.67 0 35C0 54.33 15.67 70 35 70Z" fill="#FAFAFA"/>
<path opacity="0.2" d="M21.875 54.6875C21.875 55.8906 20.8906 56.875 19.6875 56.875H17.5C16.2969 56.875 15.3125 55.8906 15.3125 54.6875V42.6562C15.3125 41.4531 16.2969 40.4688 17.5 40.4688H19.6875C20.8906 40.4688 21.875 41.4531 21.875 42.6562V54.6875Z" fill="#231F20"/>
<path opacity="0.2" d="M54.6875 54.6875C54.6875 55.8906 53.7031 56.875 52.5 56.875H50.3125C49.1094 56.875 48.125 55.8906 48.125 54.6875V42.6562C48.125 41.4531 49.1094 40.4688 50.3125 40.4688H52.5C53.7031 40.4688 54.6875 41.4531 54.6875 42.6562V54.6875Z" fill="#231F20"/>
<path d="M21.875 52.5C21.875 53.7031 20.8906 54.6875 19.6875 54.6875H17.5C16.2969 54.6875 15.3125 53.7031 15.3125 52.5V40.4688C15.3125 39.2656 16.2969 38.2812 17.5 38.2812H19.6875C20.8906 38.2812 21.875 39.2656 21.875 40.4688V52.5Z" fill="#353535"/>
<path d="M54.6875 52.5C54.6875 53.7031 53.7031 54.6875 52.5 54.6875H50.3125C49.1094 54.6875 48.125 53.7031 48.125 52.5V40.4688C48.125 39.2656 49.1094 38.2812 50.3125 38.2812H52.5C53.7031 38.2812 54.6875 39.2656 54.6875 40.4688V52.5Z" fill="#353535"/>
<g opacity="0.2">
<path d="M48.125 40.4688H21.875C18.2656 40.4688 15.3125 37.5156 15.3125 33.9062V33.4688L17.5 22.4219C18.5938 18.5938 21 16.4062 24.0625 16.4062H45.9375C49 16.4062 51.4062 18.5938 52.3906 22.4219V22.5313L54.6875 33.9062C54.6875 37.5156 51.7344 40.4688 48.125 40.4688ZM19.6875 34.125C19.7969 35.2188 20.6719 36.0938 21.875 36.0938H48.125C49.2188 36.0938 50.2031 35.2188 50.3125 34.125L48.2344 23.5156C47.9062 22.6406 47.25 20.7812 45.9375 20.7812H24.0625C22.75 20.7812 22.0937 22.6406 21.7656 23.5156L19.6875 34.125Z" fill="#231F20"/>
</g>
<path d="M52.5 31.7188C52.5 34.125 50.5313 36.0938 48.125 36.0938H21.875C19.4687 36.0938 17.5 34.125 17.5 31.7188L19.6875 20.7812C20.2344 18.5938 21.6562 16.4062 24.0625 16.4062H45.9375C48.3438 16.4062 49.7656 18.5938 50.3125 20.7812L52.5 31.7188Z" stroke="#3C6E71" stroke-width="4.375" stroke-miterlimit="10"/>
<g opacity="0.2">
<path d="M56.875 45.9375C56.875 48.3438 54.9062 50.3125 52.5 50.3125H17.5C15.0938 50.3125 13.125 48.3438 13.125 45.9375V40.4688C13.125 38.0625 15.0938 36.0938 17.5 36.0938H52.5C54.9062 36.0938 56.875 38.0625 56.875 40.4688V45.9375Z" fill="#231F20"/>
<path d="M52.5 52.5H17.5C13.8906 52.5 10.9375 49.5469 10.9375 45.9375V40.4688C10.9375 36.8594 13.8906 33.9062 17.5 33.9062H52.5C56.1094 33.9062 59.0625 36.8594 59.0625 40.4688V45.9375C59.0625 49.5469 56.1094 52.5 52.5 52.5ZM17.5 38.2812C16.2969 38.2812 15.3125 39.2656 15.3125 40.4688V45.9375C15.3125 47.1406 16.2969 48.125 17.5 48.125H52.5C53.7031 48.125 54.6875 47.1406 54.6875 45.9375V40.4688C54.6875 39.2656 53.7031 38.2812 52.5 38.2812H17.5Z" fill="#231F20"/>
</g>
<path d="M56.875 43.75C56.875 46.1562 54.9062 48.125 52.5 48.125H17.5C15.0938 48.125 13.125 46.1562 13.125 43.75V38.2812C13.125 35.875 15.0938 33.9062 17.5 33.9062H52.5C54.9062 33.9062 56.875 35.875 56.875 38.2812V43.75Z" fill="#3C6E71" stroke="#3C6E71" stroke-width="4.375" stroke-miterlimit="10"/>
<path d="M22.9688 41.5625C22.9688 43.9688 21 45.9375 18.5938 45.9375C16.1875 45.9375 14.2188 43.9688 14.2188 41.5625C14.2188 39.1562 16.1875 37.1875 18.5938 37.1875C21 37.1875 22.9688 39.1562 22.9688 41.5625Z" fill="#F5CF87" stroke="#3C6E71" stroke-width="2.1875" stroke-miterlimit="10"/>
<path d="M55.7812 41.5625C55.7812 43.9688 53.8125 45.9375 51.4062 45.9375C49 45.9375 47.0312 43.9688 47.0312 41.5625C47.0312 39.1562 49 37.1875 51.4062 37.1875C53.8125 37.1875 55.7812 39.1562 55.7812 41.5625Z" fill="#F5CF87" stroke="#3C6E71" stroke-width="2.1875" stroke-miterlimit="10"/>
</g>
<defs>
<clipPath id="clip0_54_36">
<rect width="70" height="70" fill="white"/>
</clipPath>
</defs>
</svg>
